<svg xmlns="http://www.w3.org/2000/svg" viewBox="0 0 100 100">
  <circle cx="50" cy="50" r="48" fill="#fff5ea" />
  
  <circle cx="25" cy="38" r="8" fill="#c48a5c" stroke="#4a3219" stroke-width="3"/>
  <circle cx="75" cy="38" r="8" fill="#c48a5c" stroke="#4a3219" stroke-width="3"/>
  
  <rect x="20" y="30" width="60" height="55" rx="28" fill="#d8a47b" stroke="#4a3219" stroke-width="3"/>
  
  <ellipse cx="50" cy="60" rx="16" ry="20" fill="#b87b4f" stroke="#4a3219" stroke-width="3"/>
  
  <path d="M 45 54 Q 50 58 55 54" fill="none" stroke="#4a3219" stroke-width="3" stroke-linecap="round"/>
  <line x1="50" y1="57" x2="50" y2="70" stroke="#4a3219" stroke-width="3" stroke-linecap="round"/>
  
  <line x1="26" y1="48" x2="36" y2="48" stroke="#4a3219" stroke-width="3" stroke-linecap="round"/>
  <line x1="64" y1="48" x2="74" y2="48" stroke="#4a3219" stroke-width="3" stroke-linecap="round"/>
  
  <path d="M 50 30 C 50 30, 40 12, 33 20 C 33 20, 43 28, 50 30 Z" fill="#71b087" stroke="#4a3219" stroke-width="3" stroke-linejoin="round"/>
  <path d="M 50 30 C 50 30, 60 12, 67 20 C 67 20, 57 28, 50 30 Z" fill="#71b087" stroke="#4a3219" stroke-width="3" stroke-linejoin="round"/>
  
  <path d="M 18 72 Q 50 85 82 72 L 85 85 Q 50 98 15 85 Z" fill="#fc8b6c" stroke="#4a3219" stroke-width="3" stroke-linejoin="round"/>
  <path d="M 23 78 L 18 96 L 33 93 L 35 83 Z" fill="#fc8b6c" stroke="#4a3219" stroke-width="3" stroke-linejoin="round"/>
</svg>
